<?xml version="1.0" encoding="UTF-8"?>
<svg width="31px" height="21px" viewBox="0 0 31 21" version="1.1" xmlns="http://www.w3.org/2000/svg" xmlns:xlink="http://www.w3.org/1999/xlink">
    <!-- Generator: Sketch 40 (33762) - http://www.bohemiancoding.com/sketch -->
    <title>eycon</title>
    <desc>Created with Sketch.</desc>
    <defs></defs>
    <g id="Page-1" stroke="none" stroke-width="1" fill="none" fill-rule="evenodd" stroke-linecap="round" stroke-linejoin="round">
        <g id="DFDS-design-v_3" transform="translate(-294.000000, -266.000000)" stroke="#FFFFFF" stroke-width="3" fill="#FFFFFF">
            <g id="Group-5" transform="translate(20.000000, 120.000000)">
                <g id="Group" transform="translate(146.000000, 145.000000)">
                    <path d="M143.5,20 C150.955844,20 157,11.5 157,11.5 C157,11.5 150.955844,3 143.5,3 C136.044156,3 130,11.5 130,11.5 C130,11.5 136.044156,20 143.5,20 Z M143.5,18 C147.089851,18 150,15.0898509 150,11.5 C150,7.91014913 147.089851,5 143.5,5 C139.910149,5 137,7.91014913 137,11.5 C137,15.0898509 139.910149,18 143.5,18 Z" id="eycon"></path>
                </g>
            </g>
        </g>
    </g>
</svg>