<?xml version="1.0" encoding="UTF-8"?>
<svg width="24px" height="19px" viewBox="0 0 24 19" version="1.1" xmlns="http://www.w3.org/2000/svg" xmlns:xlink="http://www.w3.org/1999/xlink">
    <!-- Generator: Sketch 40 (33762) - http://www.bohemiancoding.com/sketch -->
    <title>Combined Shape</title>
    <desc>Created with Sketch.</desc>
    <defs></defs>
    <g id="Page-1" stroke="none" stroke-width="1" fill="none" fill-rule="evenodd">
        <g id="DFDS-design-v_3" transform="translate(-231.000000, -265.000000)" fill="#FFFFFF">
            <g id="Group-5" transform="translate(20.000000, 120.000000)">
                <g id="Group" transform="translate(146.000000, 145.000000)">
                    <g id="Group-4" transform="translate(65.000000, 0.000000)">
                        <path d="M21.9950534,0 C23.1023548,0 24,0.895748699 24,2.00073603 L24,17.3766463 C24,18.4816222 23.3246969,18.8003974 22.4760359,18.075294 L20.9472963,16.7691255 C20.1056342,16.050002 18.5254594,15.4670372 17.4178518,15.4670372 L2.00548041,15.4670369 C0.897884163,15.4670369 0,14.5686094 0,13.4766564 L0,1.99038044 C0,0.891123676 0.897026226,0 2.00494659,0 L21.9950534,0 Z M11.790722,6.05263158 L19,6.05263158 C19.5522847,6.05263158 20,5.60491633 20,5.05263158 C20,4.50034683 19.5522847,4.05263158 19,4.05263158 L11.790722,4.05263158 L4,4.05263158 C3.44771525,4.05263158 3,4.50034683 3,5.05263158 C3,5.60491633 3.44771525,6.05263158 4,6.05263158 L11.790722,6.05263158 Z M15,10 C15.5522847,10 16,9.55228475 16,9 C16,8.44771525 15.5522847,8 15,8 L4,8 C3.44771525,8 3,8.44771525 3,9 C3,9.55228475 3.44771525,10 4,10 L15,10 Z" id="Combined-Shape"></path>
                    </g>
                </g>
            </g>
        </g>
    </g>
</svg>